# xmcd CD Database Entry
#
# Track frame offsets:
# 150
# 24108
# 44759
# 67373
# 87761
# 105601
# 134511
# 154050
# 169438
# 190550
# 224343
#
# Disc length: 3387 seconds
#
# Revision: 2
# Processed by: cddbd v1.5.2PL0 Copyright (c) Steve Scherf et al.
# Submitted via: tcd 2.0b
#
DISCID=9c0d390b
DTITLE=pure soul - GLAY
DYEAR=1900
DGENRE=
TTITLE0=YOU MAY DREAM
TTITLE1=ビリビリクラッシュメン
TTITLE2=May Fair
TTITLE3=SOUL LOVE
TTITLE4=出逢ってしまった２人
TTITLE5=pure soul
TTITLE6=誘惑
TTITLE7=COME ON!!
TTITLE8=FRIEDCHICKEN&BEER
TTITLE9=三年後
TTITLE10=I'm in Love
EXTD=\t
EXTT0=
EXTT1=
EXTT2=
EXTT3=
EXTT4=\n
EXTT5=
EXTT6=
EXTT7=
EXTT8=
EXTT9=
EXTT10=
PLAYORDER=
